
<svg width="196px" height="196px" viewBox="0 0 196 196" version="1.1" xmlns="http://www.w3.org/2000/svg" xmlns:xlink="http://www.w3.org/1999/xlink">
    <g id="Page-5" stroke="none" stroke-width="1" fill="none" fill-rule="evenodd">
        <g id="Desktop-HD" transform="translate(-622.000000, -58.000000)">
            <circle id="Oval" stroke="#FFFFFF" stroke-width="5" cx="720" cy="156" r="95"></circle>
            <g id="Logo" transform="translate(683.000000, 89.000000)">
                <path d="M-0.0964170239,62.7198277 L36.1920295,-3.55271368e-15 L72.4804761,62.7198277 C73.3102257,64.1539412 72.8202919,65.9891649 71.3861784,66.8189145 C70.9295519,67.0831095 70.4113318,67.2222222 69.8837839,67.2222222 L2.50027522,67.2222222 C0.843420968,67.2222222 -0.499724782,65.8790765 -0.499724782,64.2222222 C-0.499724782,63.6946743 -0.360612059,63.1764542 -0.0964170239,62.7198277 Z" id="Path" stroke="#000000" fill="#000000"></path>
                <path d="M-0.0964170239,83.4976054 L36.1920295,20.7777778 L72.4804761,83.4976054 C73.3102257,84.931719 72.8202919,86.7669426 71.3861784,87.5966922 C70.9295519,87.8608873 70.4113318,88 69.8837839,88 L2.50027522,88 C0.843420968,88 -0.499724782,86.6568542 -0.499724782,85 C-0.499724782,84.4724521 -0.360612059,83.954232 -0.0964170239,83.4976054 Z" id="Path" stroke="#737373" fill="#737373"></path>
                <path d="M-0.0964170239,105.497605 L36.1920295,42.7777778 L72.4804761,105.497605 C73.3102257,106.931719 72.8202919,108.766943 71.3861784,109.596692 C70.9295519,109.860887 70.4113318,110 69.8837839,110 L2.50027522,110 C0.843420968,110 -0.499724782,108.656854 -0.499724782,107 C-0.499724782,106.472452 -0.360612059,105.954232 -0.0964170239,105.497605 Z" id="Path" stroke="#D8D8D8" fill="#D8D8D8"></path>
            </g>
        </g>
    </g>
</svg>