<svg width="35px" height="53px" viewBox="0 0 35 53" version="1.1" xmlns="http://www.w3.org/2000/svg" xmlns:xlink="http://www.w3.org/1999/xlink">
    <g id="Centre-Piece" stroke="none" stroke-width="1" fill="none" fill-rule="evenodd">
        <g id="Desktop" transform="translate(-83.000000, -34.000000)">
            <rect fill="#B22222" x="0" y="0" width="2000" height="2579"></rect>
            <g id="Logo" transform="translate(83.000000, 34.000000)">
                <path d="M1.35620127,27.2594566 L17.3523429,-3.55271368e-15 L33.3484846,27.2594566 C34.1870302,28.6884448 33.7083819,30.5266442 32.2793937,31.3651898 C31.8190065,31.6353499 31.294873,31.7777778 30.7610726,31.7777778 L3.94361328,31.7777778 C2.28675903,31.7777778 0.943613283,30.434632 0.943613283,28.7777778 C0.943613283,28.2439774 1.08604111,27.7198439 1.35620127,27.2594566 Z" id="Path" stroke="#000000" fill="#000000"></path>
                <path d="M1.35620127,37.0816789 L17.3523429,9.82222222 L33.3484846,37.0816789 C34.1870302,38.5106671 33.7083819,40.3488664 32.2793937,41.187412 C31.8190065,41.4575722 31.294873,41.6 30.7610726,41.6 L3.94361328,41.6 C2.28675903,41.6 0.943613283,40.2568542 0.943613283,38.6 C0.943613283,38.0661996 1.08604111,37.5420661 1.35620127,37.0816789 Z" id="Path" stroke="#737373" fill="#737373"></path>
                <path d="M1.35620127,47.4816789 L17.3523429,20.2222222 L33.3484846,47.4816789 C34.1870302,48.9106671 33.7083819,50.7488664 32.2793937,51.587412 C31.8190065,51.8575722 31.294873,52 30.7610726,52 L3.94361328,52 C2.28675903,52 0.943613283,50.6568542 0.943613283,49 C0.943613283,48.4661996 1.08604111,47.9420661 1.35620127,47.4816789 Z" id="Path" stroke="#D8D8D8" fill="#D8D8D8"></path>
            </g>
        </g>
    </g>
</svg>